# xmcd
#
# Track frame offsets:
#        150
#        15450
#        35663
#        52613
#        69638
#
# Disc length: 1125 seconds
#
# Revision: 0
# Processed by: cddbd v1.5.1PL2 Copyright (c) Steve Scherf et al.
# Submitted via: ExactAudioCopy v0.95b3
#
DISCID=35046305
DTITLE=Radio Beach - Under Skin
DYEAR=2006
DGENRE=Rock
TTITLE0=The Birds Song
TTITLE1=Red Curtain
TTITLE2=Missile
TTITLE3=September rain
TTITLE4=Pink smiler
EXTD=
EXTT0=
EXTT1=
EXTT2=
EXTT3=
EXTT4=
PLAYORDER=
